<?xml version="1.0" encoding="UTF-8"?><svg id="a" xmlns="http://www.w3.org/2000/svg" viewBox="0 0 1728.95 1537.69"><defs><style>.b{fill:#fff;}</style></defs><path class="b" d="M714.36,833.31c0,169.55,137.45,307,307,307v-307h-307Z"/><path class="b" d="M1328.36,1447.31c0-169.55-137.45-307-307-307v307h307Z"/><path class="b" d="M714.36,1447.31c169.55,0,307-137.45,307-307h-307v307Z"/><path class="b" d="M714.36,1447.31c0-169.55-137.45-307-307-307v307h307Z"/><path class="b" d="M714.36,833.31c-169.55,0-307,137.45-307,307h307v-307Z"/><path class="b" d="M1635.36,1140.31c0-169.55-137.45-307-307-307v307h307Z"/><path class="b" d="M1328.36,833.31c169.55,0,307-137.45,307-307h-307v307Z"/><path class="b" d="M1635.36,219.31c-169.55,0-307,137.45-307,307h307V219.31Z"/><path class="b" d="M1331.32,833.31c0-169.55-137.45-307-307-307v307h307Z"/><path class="b" d="M1331.32,219.31c-169.55,0-307,137.45-307,307h307V219.31Z"/><path class="b" d="M1021.36,833.31v307h307c0-169.55-137.45-307-307-307Z"/><path class="b" d="M1328.36,1447.31h307v-307c-169.55,0-307,137.45-307,307Z"/></svg>